<svg width="262" height="49" viewBox="0 0 262 49" fill="none" xmlns="http://www.w3.org/2000/svg">
<path d="M252.142 25.1052C250.265 25.1052 248.729 24.6358 247.534 23.6972C246.361 22.7372 245.774 21.4358 245.774 19.7932C245.774 18.0865 246.339 16.7638 247.47 15.8252C248.601 14.8652 250.201 14.3852 252.27 14.3852C253.187 14.3852 254.062 14.4812 254.894 14.6732C255.726 14.8652 256.462 15.1318 257.102 15.4732V15.0892C257.102 14.1292 256.761 13.4252 256.078 12.9772C255.395 12.5292 254.35 12.3052 252.942 12.3052C251.065 12.3052 249.337 12.6572 247.758 13.3612V9.84116C248.441 9.54249 249.326 9.29716 250.414 9.10516C251.502 8.89182 252.59 8.78516 253.678 8.78516C256.451 8.78516 258.521 9.36116 259.886 10.5132C261.251 11.6438 261.934 13.2332 261.934 15.2812V24.6252H257.39V23.2172C256.089 24.4758 254.339 25.1052 252.142 25.1052ZM253.454 21.9052C254.243 21.9052 254.958 21.7558 255.598 21.4572C256.238 21.1585 256.739 20.7425 257.102 20.2092V18.6732C256.014 17.9478 254.819 17.5852 253.518 17.5852C252.622 17.5852 251.929 17.7772 251.438 18.1612C250.969 18.5238 250.734 19.0678 250.734 19.7932C250.734 20.4758 250.969 20.9985 251.438 21.3612C251.907 21.7238 252.579 21.9052 253.454 21.9052Z" fill="#F19101"/>
<path d="M233.138 30.9611C232.498 30.9611 231.837 30.9185 231.154 30.8331C230.493 30.7478 229.991 30.6305 229.65 30.4811V26.8651C230.269 27.0998 230.951 27.2171 231.698 27.2171C232.466 27.2171 233.042 27.0465 233.426 26.7051C233.831 26.3638 234.162 25.8305 234.418 25.1051L234.93 23.7931L228.274 9.26514H233.138L237.49 19.8571L241.618 9.26514H246.45L239.922 25.6811C239.197 27.4945 238.301 28.8278 237.234 29.6811C236.167 30.5345 234.802 30.9611 233.138 30.9611Z" fill="#F19101"/>
<path d="M216.289 9.26495H220.961V11.4729C221.58 10.7263 222.444 10.1609 223.553 9.77695C224.662 9.37161 225.921 9.16895 227.329 9.16895V12.8489C225.857 12.8489 224.556 13.0729 223.425 13.5209C222.316 13.9689 221.548 14.6516 221.121 15.5689V24.6249H216.289V9.26495Z" fill="#F19101"/>
<path d="M202.714 25.1051C200.623 25.1051 199.055 24.5398 198.01 23.4091C196.964 22.2571 196.442 20.7318 196.442 18.8331V9.26514H201.274V18.3211C201.274 20.3265 202.202 21.3291 204.058 21.3291C204.868 21.3291 205.626 21.1371 206.33 20.7531C207.034 20.3691 207.62 19.7931 208.09 19.0251V9.26514H212.922V24.6251H208.25V22.7691C207.567 23.5585 206.735 24.1451 205.754 24.5291C204.794 24.9131 203.78 25.1051 202.714 25.1051Z" fill="#F19101"/>
<path d="M184.678 25.1052C182.822 25.1052 181.19 24.7745 179.782 24.1132C178.396 23.4305 177.318 22.4812 176.55 21.2652C175.804 20.0278 175.43 18.5878 175.43 16.9452C175.43 15.3452 175.804 13.9265 176.55 12.6892C177.318 11.4518 178.396 10.4918 179.782 9.80915C181.19 9.12649 182.822 8.78516 184.678 8.78516C186.513 8.78516 188.124 9.12649 189.51 9.80915C190.918 10.4918 191.996 11.4518 192.742 12.6892C193.51 13.9265 193.894 15.3452 193.894 16.9452C193.894 18.5878 193.51 20.0278 192.742 21.2652C191.996 22.4812 190.929 23.4305 189.542 24.1132C188.156 24.7745 186.534 25.1052 184.678 25.1052ZM184.678 21.3292C185.98 21.3292 187.014 20.9345 187.782 20.1452C188.55 19.3345 188.934 18.2678 188.934 16.9452C188.934 15.5798 188.55 14.5132 187.782 13.7452C187.036 12.9558 186.001 12.5612 184.678 12.5612C183.356 12.5612 182.31 12.9558 181.542 13.7452C180.774 14.5132 180.39 15.5798 180.39 16.9452C180.39 18.2678 180.774 19.3345 181.542 20.1452C182.332 20.9345 183.377 21.3292 184.678 21.3292Z" fill="#F19101"/>
<path d="M149.352 2.25708H154.152L161.031 17.2331L167.943 2.25708H172.712V24.6251H168.072V11.9211L162.152 24.6251H159.911L154.023 11.9211V24.6251H149.352V2.25708Z" fill="#F19101"/>
<path d="M132.221 25.105C130.429 25.105 129.064 24.6143 128.125 23.633C127.208 22.6303 126.749 21.2436 126.749 19.473V12.753H124.509V9.26498H126.749V4.65698H131.581V9.26498H135.197V12.753H131.581V18.833C131.581 19.729 131.752 20.3796 132.093 20.785C132.434 21.169 133.042 21.361 133.917 21.361C134.621 21.361 135.293 21.1903 135.933 20.849V24.465C134.952 24.8916 133.714 25.105 132.221 25.105Z" fill="#F19101"/>
<path d="M106.102 9.26516H110.773V11.1532C111.477 10.3638 112.31 9.77716 113.27 9.39316C114.251 8.98782 115.275 8.78516 116.341 8.78516C118.432 8.78516 119.99 9.35049 121.014 10.4812C122.059 11.5905 122.581 13.0945 122.581 14.9932V24.6252H117.749V15.5372C117.749 13.5532 116.832 12.5612 114.997 12.5612C114.187 12.5612 113.43 12.7638 112.726 13.1692C112.022 13.5532 111.424 14.1292 110.934 14.8972V24.6252H106.102V9.26516Z" fill="#F19101"/>
<path d="M93.1108 25.1052C91.2334 25.1052 89.6974 24.6358 88.5028 23.6972C87.3294 22.7372 86.7428 21.4358 86.7428 19.7932C86.7428 18.0865 87.3081 16.7638 88.4388 15.8252C89.5694 14.8652 91.1694 14.3852 93.2388 14.3852C94.1561 14.3852 95.0308 14.4812 95.8628 14.6732C96.6948 14.8652 97.4308 15.1318 98.0708 15.4732V15.0892C98.0708 14.1292 97.7294 13.4252 97.0468 12.9772C96.3641 12.5292 95.3188 12.3052 93.9108 12.3052C92.0334 12.3052 90.3054 12.6572 88.7268 13.3612V9.84116C89.4094 9.54249 90.2948 9.29716 91.3828 9.10516C92.4708 8.89182 93.5588 8.78516 94.6468 8.78516C97.4201 8.78516 99.4894 9.36116 100.855 10.5132C102.22 11.6438 102.903 13.2332 102.903 15.2812V24.6252H98.3588V23.2172C97.0574 24.4758 95.3081 25.1052 93.1108 25.1052ZM94.4228 21.9052C95.2121 21.9052 95.9268 21.7558 96.5668 21.4572C97.2068 21.1585 97.7081 20.7425 98.0708 20.2092V18.6732C96.9828 17.9478 95.7881 17.5852 94.4868 17.5852C93.5908 17.5852 92.8974 17.7772 92.4068 18.1612C91.9374 18.5238 91.7028 19.0678 91.7028 19.7932C91.7028 20.4758 91.9374 20.9985 92.4068 21.3612C92.8761 21.7238 93.5481 21.9052 94.4228 21.9052Z" fill="#F19101"/>
<path d="M67.6953 0.977051H72.5273V11.0251C73.2526 10.2784 74.0739 9.72372 74.9912 9.36105C75.9086 8.97705 76.8899 8.78505 77.9352 8.78505C80.0259 8.78505 81.5833 9.35038 82.6073 10.4811C83.6526 11.5904 84.1752 13.0944 84.1752 14.9931V24.6251H79.3432V15.5371C79.3432 13.5531 78.4259 12.5611 76.5912 12.5611C75.7806 12.5611 75.0233 12.7637 74.3193 13.1691C73.6153 13.5531 73.0179 14.1291 72.5273 14.8971V24.6251H67.6953V0.977051Z" fill="#F19101"/>
<path d="M57.8743 25.1052C56.7223 25.1052 55.4849 24.9772 54.1623 24.7212C52.8609 24.4865 51.8369 24.1452 51.0903 23.6972V19.9212C51.9436 20.4332 52.9676 20.8492 54.1623 21.1692C55.3569 21.4892 56.4663 21.6492 57.4903 21.6492C58.3649 21.6492 59.0049 21.5745 59.4103 21.4252C59.8156 21.2758 60.0183 20.9985 60.0183 20.5932C60.0183 20.2732 59.9009 20.0172 59.6663 19.8252C59.4316 19.6118 59.0689 19.4305 58.5783 19.2812C58.1089 19.1105 57.3196 18.8652 56.2103 18.5452C54.9089 18.1612 53.8849 17.7772 53.1383 17.3932C52.4129 16.9878 51.8583 16.4865 51.4743 15.8892C51.1116 15.2918 50.9303 14.5238 50.9303 13.5852C50.9303 11.9852 51.5596 10.7905 52.8183 10.0012C54.0983 9.19049 55.8263 8.78516 58.0023 8.78516C59.0689 8.78516 60.1676 8.90249 61.2983 9.13716C62.4503 9.35049 63.3356 9.63849 63.9543 10.0012V13.6812C63.3356 13.2758 62.5249 12.9452 61.5223 12.6892C60.5409 12.4332 59.5809 12.3052 58.6423 12.3052C57.7676 12.3052 57.0849 12.3905 56.5943 12.5612C56.1249 12.7318 55.8903 13.0518 55.8903 13.5212C55.8903 13.9265 56.1143 14.2358 56.5623 14.4492C57.0316 14.6625 57.8956 14.9292 59.1543 15.2492L59.7943 15.4092C61.1383 15.7718 62.1836 16.1772 62.9303 16.6252C63.6769 17.0518 64.1996 17.5745 64.4983 18.1932C64.8183 18.7905 64.9783 19.5478 64.9783 20.4652C64.9783 21.8732 64.3703 23.0038 63.1543 23.8572C61.9383 24.6892 60.1783 25.1052 57.8743 25.1052Z" fill="#F19101"/>
<path d="M39.0483 25.1052C37.1709 25.1052 35.6349 24.6358 34.4403 23.6972C33.2669 22.7372 32.6803 21.4358 32.6803 19.7932C32.6803 18.0865 33.2456 16.7638 34.3763 15.8252C35.5069 14.8652 37.1069 14.3852 39.1763 14.3852C40.0936 14.3852 40.9683 14.4812 41.8003 14.6732C42.6323 14.8652 43.3683 15.1318 44.0083 15.4732V15.0892C44.0083 14.1292 43.6669 13.4252 42.9843 12.9772C42.3016 12.5292 41.2563 12.3052 39.8483 12.3052C37.9709 12.3052 36.2429 12.6572 34.6643 13.3612V9.84116C35.3469 9.54249 36.2323 9.29716 37.3203 9.10516C38.4083 8.89182 39.4963 8.78516 40.5843 8.78516C43.3576 8.78516 45.4269 9.36116 46.7923 10.5132C48.1576 11.6438 48.8403 13.2332 48.8403 15.2812V24.6252H44.2963V23.2172C42.9949 24.4758 41.2456 25.1052 39.0483 25.1052ZM40.3603 21.9052C41.1496 21.9052 41.8643 21.7558 42.5043 21.4572C43.1443 21.1585 43.6456 20.7425 44.0083 20.2092V18.6732C42.9203 17.9478 41.7256 17.5852 40.4243 17.5852C39.5283 17.5852 38.8349 17.7772 38.3443 18.1612C37.8749 18.5238 37.6403 19.0678 37.6403 19.7932C37.6403 20.4758 37.8749 20.9985 38.3443 21.3612C38.8136 21.7238 39.4856 21.9052 40.3603 21.9052Z" fill="#F19101"/>
<path d="M21.664 9.26495H26.336V11.4729C26.9547 10.7263 27.8187 10.1609 28.928 9.77695C30.0374 9.37161 31.296 9.16895 32.704 9.16895V12.8489C31.232 12.8489 29.9307 13.0729 28.8 13.5209C27.6907 13.9689 26.9227 14.6516 26.496 15.5689V24.6249H21.664V9.26495Z" fill="#F19101"/>
<path d="M1.66402 2.25708H11.072C13.6107 2.25708 15.6374 2.92908 17.152 4.27308C18.6667 5.59575 19.424 7.44108 19.424 9.80908C19.424 12.2411 18.6667 14.1077 17.152 15.4091C15.6587 16.7104 13.632 17.3611 11.072 17.3611H6.52802V24.6251H1.66402V2.25708ZM10.368 13.2971C13.12 13.2971 14.496 12.1344 14.496 9.80908C14.496 8.50775 14.1227 7.60108 13.376 7.08908C12.6507 6.57708 11.648 6.32108 10.368 6.32108H6.52802V13.2971H10.368Z" fill="#F19101"/>
<path d="M253.539 38.7109C254.406 38.7109 255.15 38.8896 255.771 39.2471C256.392 39.6045 256.87 40.1113 257.204 40.7676C257.538 41.4238 257.705 42.209 257.705 43.123V44.2305H251.21C251.233 45.1738 251.485 45.9004 251.966 46.4102C252.452 46.9199 253.132 47.1748 254.005 47.1748C254.626 47.1748 255.182 47.1162 255.675 46.999C256.173 46.876 256.685 46.6973 257.213 46.4629V48.1416C256.726 48.3701 256.231 48.5371 255.727 48.6426C255.223 48.748 254.62 48.8008 253.917 48.8008C252.962 48.8008 252.121 48.6162 251.394 48.2471C250.674 47.8721 250.108 47.3154 249.698 46.5771C249.294 45.8389 249.092 44.9219 249.092 43.8262C249.092 42.7363 249.276 41.8105 249.645 41.0488C250.014 40.2871 250.533 39.707 251.201 39.3086C251.869 38.9102 252.648 38.7109 253.539 38.7109ZM253.539 40.2666C252.888 40.2666 252.361 40.4775 251.957 40.8994C251.558 41.3213 251.324 41.9395 251.254 42.7539H255.683C255.677 42.2676 255.595 41.8369 255.437 41.4619C255.285 41.0869 255.051 40.7939 254.734 40.583C254.424 40.3721 254.025 40.2666 253.539 40.2666Z" fill="white"/>
<path d="M238.851 48.625L235.151 38.8955H237.34L239.343 44.6084C239.472 44.9717 239.59 45.3643 239.695 45.7861C239.8 46.208 239.874 46.5625 239.915 46.8496H239.985C240.026 46.5508 240.105 46.1934 240.222 45.7773C240.34 45.3555 240.46 44.9658 240.583 44.6084L242.587 38.8955H244.766L241.066 48.625H238.851Z" fill="white"/>
<path d="M230.246 38.8955V48.625H228.18V38.8955H230.246ZM229.226 35.1689C229.543 35.1689 229.815 35.2539 230.044 35.4238C230.278 35.5938 230.395 35.8867 230.395 36.3027C230.395 36.7129 230.278 37.0059 230.044 37.1816C229.815 37.3516 229.543 37.4365 229.226 37.4365C228.898 37.4365 228.62 37.3516 228.391 37.1816C228.169 37.0059 228.057 36.7129 228.057 36.3027C228.057 35.8867 228.169 35.5938 228.391 35.4238C228.62 35.2539 228.898 35.1689 229.226 35.1689Z" fill="white"/>
<path d="M221.262 47.1309C221.532 47.1309 221.798 47.1074 222.062 47.0605C222.326 47.0078 222.566 46.9463 222.783 46.876V48.4404C222.554 48.54 222.258 48.625 221.895 48.6953C221.532 48.7656 221.154 48.8008 220.761 48.8008C220.21 48.8008 219.715 48.71 219.276 48.5283C218.836 48.3408 218.488 48.0215 218.23 47.5703C217.972 47.1191 217.843 46.4951 217.843 45.6982V40.4688H216.516V39.5459L217.94 38.8164L218.617 36.7334H219.918V38.8955H222.704V40.4688H219.918V45.6719C219.918 46.1641 220.041 46.5303 220.287 46.7705C220.533 47.0107 220.858 47.1309 221.262 47.1309Z" fill="white"/>
<path d="M211.259 38.8955V48.625H209.633L209.352 47.3154H209.238C209.033 47.6494 208.772 47.9277 208.456 48.1504C208.139 48.3672 207.788 48.5283 207.401 48.6338C207.014 48.7451 206.607 48.8008 206.179 48.8008C205.447 48.8008 204.82 48.6777 204.298 48.4316C203.783 48.1797 203.387 47.793 203.112 47.2715C202.836 46.75 202.699 46.0762 202.699 45.25V38.8955H204.773V44.8633C204.773 45.6191 204.925 46.1846 205.23 46.5596C205.54 46.9346 206.021 47.1221 206.671 47.1221C207.298 47.1221 207.796 46.9932 208.165 46.7354C208.535 46.4775 208.795 46.0967 208.948 45.5928C209.106 45.0889 209.185 44.4707 209.185 43.7383V38.8955H211.259Z" fill="white"/>
<path d="M194.33 48.8008C193.411 48.8008 192.614 48.6221 191.94 48.2646C191.266 47.9072 190.747 47.3594 190.384 46.6211C190.021 45.8828 189.839 44.9453 189.839 43.8086C189.839 42.625 190.038 41.6582 190.437 40.9082C190.835 40.1582 191.386 39.6045 192.089 39.2471C192.798 38.8896 193.61 38.7109 194.524 38.7109C195.104 38.7109 195.628 38.7695 196.097 38.8867C196.572 38.998 196.973 39.1357 197.301 39.2998L196.686 40.9521C196.328 40.8057 195.962 40.6826 195.587 40.583C195.212 40.4834 194.852 40.4336 194.506 40.4336C193.938 40.4336 193.463 40.5596 193.082 40.8115C192.707 41.0635 192.426 41.4385 192.239 41.9365C192.057 42.4346 191.966 43.0527 191.966 43.791C191.966 44.5059 192.06 45.1094 192.247 45.6016C192.435 46.0879 192.713 46.457 193.082 46.709C193.452 46.9551 193.906 47.0781 194.445 47.0781C194.978 47.0781 195.455 47.0137 195.877 46.8848C196.299 46.7559 196.698 46.5889 197.073 46.3838V48.1768C196.703 48.3877 196.308 48.543 195.886 48.6426C195.464 48.748 194.946 48.8008 194.33 48.8008Z" fill="white"/>
<path d="M180.495 38.7109C181.363 38.7109 182.107 38.8896 182.728 39.2471C183.349 39.6045 183.826 40.1113 184.16 40.7676C184.494 41.4238 184.661 42.209 184.661 43.123V44.2305H178.166C178.19 45.1738 178.442 45.9004 178.922 46.4102C179.409 46.9199 180.088 47.1748 180.961 47.1748C181.582 47.1748 182.139 47.1162 182.631 46.999C183.129 46.876 183.642 46.6973 184.169 46.4629V48.1416C183.683 48.3701 183.188 48.5371 182.684 48.6426C182.18 48.748 181.576 48.8008 180.873 48.8008C179.918 48.8008 179.077 48.6162 178.351 48.2471C177.63 47.8721 177.065 47.3154 176.655 46.5771C176.25 45.8389 176.048 44.9219 176.048 43.8262C176.048 42.7363 176.233 41.8105 176.602 41.0488C176.971 40.2871 177.49 39.707 178.158 39.3086C178.826 38.9102 179.605 38.7109 180.495 38.7109ZM180.495 40.2666C179.845 40.2666 179.318 40.4775 178.913 40.8994C178.515 41.3213 178.281 41.9395 178.21 42.7539H182.64C182.634 42.2676 182.552 41.8369 182.394 41.4619C182.242 41.0869 182.007 40.7939 181.691 40.583C181.38 40.3721 180.982 40.2666 180.495 40.2666Z" fill="white"/>
<path d="M165.439 43.6504L162.187 38.8955H164.542L166.766 42.3145L168.998 38.8955H171.345L168.075 43.6504L171.512 48.625H169.148L166.766 44.9775L164.375 48.625H162.029L165.439 43.6504Z" fill="white"/>
<path d="M157.299 48.625H150.022V35.7754H157.299V37.5508H152.131V41.04H156.974V42.8066H152.131V46.8408H157.299V48.625Z" fill="white"/>
<path d="M131.8 38.7109C132.667 38.7109 133.411 38.8896 134.032 39.2471C134.653 39.6045 135.131 40.1113 135.465 40.7676C135.799 41.4238 135.966 42.209 135.966 43.123V44.2305H129.471C129.494 45.1738 129.746 45.9004 130.227 46.4102C130.713 46.9199 131.393 47.1748 132.266 47.1748C132.887 47.1748 133.443 47.1162 133.936 46.999C134.434 46.876 134.946 46.6973 135.474 46.4629V48.1416C134.987 48.3701 134.492 48.5371 133.988 48.6426C133.484 48.748 132.881 48.8008 132.178 48.8008C131.223 48.8008 130.382 48.6162 129.655 48.2471C128.935 47.8721 128.369 47.3154 127.959 46.5771C127.555 45.8389 127.353 44.9219 127.353 43.8262C127.353 42.7363 127.537 41.8105 127.906 41.0488C128.275 40.2871 128.794 39.707 129.462 39.3086C130.13 38.9102 130.909 38.7109 131.8 38.7109ZM131.8 40.2666C131.149 40.2666 130.622 40.4775 130.218 40.8994C129.819 41.3213 129.585 41.9395 129.515 42.7539H133.944C133.938 42.2676 133.856 41.8369 133.698 41.4619C133.546 41.0869 133.311 40.7939 132.995 40.583C132.685 40.3721 132.286 40.2666 131.8 40.2666Z" fill="white"/>
<path d="M119.476 48.8008C118.557 48.8008 117.76 48.6221 117.086 48.2646C116.412 47.9072 115.893 47.3594 115.53 46.6211C115.167 45.8828 114.985 44.9453 114.985 43.8086C114.985 42.625 115.184 41.6582 115.583 40.9082C115.981 40.1582 116.532 39.6045 117.235 39.2471C117.944 38.8896 118.756 38.7109 119.67 38.7109C120.25 38.7109 120.774 38.7695 121.243 38.8867C121.718 38.998 122.119 39.1357 122.447 39.2998L121.832 40.9521C121.474 40.8057 121.108 40.6826 120.733 40.583C120.358 40.4834 119.998 40.4336 119.652 40.4336C119.084 40.4336 118.609 40.5596 118.228 40.8115C117.853 41.0635 117.572 41.4385 117.385 41.9365C117.203 42.4346 117.112 43.0527 117.112 43.791C117.112 44.5059 117.206 45.1094 117.393 45.6016C117.581 46.0879 117.859 46.457 118.228 46.709C118.598 46.9551 119.052 47.0781 119.591 47.0781C120.124 47.0781 120.601 47.0137 121.023 46.8848C121.445 46.7559 121.844 46.5889 122.219 46.3838V48.1768C121.849 48.3877 121.454 48.543 121.032 48.6426C120.61 48.748 120.092 48.8008 119.476 48.8008Z" fill="white"/>
<path d="M109.298 38.7109C109.462 38.7109 109.64 38.7197 109.834 38.7373C110.027 38.7549 110.194 38.7783 110.335 38.8076L110.141 40.7412C110.018 40.7061 109.866 40.6797 109.684 40.6621C109.509 40.6445 109.35 40.6357 109.21 40.6357C108.841 40.6357 108.489 40.6973 108.155 40.8203C107.821 40.9375 107.525 41.1191 107.267 41.3652C107.01 41.6055 106.807 41.9072 106.661 42.2705C106.514 42.6338 106.441 43.0557 106.441 43.5361V48.625H104.367V38.8955H105.984L106.265 40.6094H106.362C106.555 40.2637 106.796 39.9473 107.083 39.6602C107.37 39.373 107.698 39.1445 108.067 38.9746C108.442 38.7988 108.852 38.7109 109.298 38.7109Z" fill="white"/>
<path d="M94.4519 38.7109C95.3191 38.7109 96.0632 38.8896 96.6843 39.2471C97.3054 39.6045 97.783 40.1113 98.1169 40.7676C98.4509 41.4238 98.6179 42.209 98.6179 43.123V44.2305H92.1228C92.1462 45.1738 92.3982 45.9004 92.8787 46.4102C93.365 46.9199 94.0447 47.1748 94.9177 47.1748C95.5388 47.1748 96.0955 47.1162 96.5876 46.999C97.0857 46.876 97.5984 46.6973 98.1257 46.4629V48.1416C97.6394 48.3701 97.1443 48.5371 96.6404 48.6426C96.1365 48.748 95.533 48.8008 94.8298 48.8008C93.8748 48.8008 93.0339 48.6162 92.3074 48.2471C91.5867 47.8721 91.0212 47.3154 90.6111 46.5771C90.2068 45.8389 90.0046 44.9219 90.0046 43.8262C90.0046 42.7363 90.1892 41.8105 90.5583 41.0488C90.9275 40.2871 91.446 39.707 92.114 39.3086C92.782 38.9102 93.5613 38.7109 94.4519 38.7109ZM94.4519 40.2666C93.8015 40.2666 93.2742 40.4775 92.8699 40.8994C92.4714 41.3213 92.2371 41.9395 92.1667 42.7539H96.5964C96.5906 42.2676 96.5085 41.8369 96.3503 41.4619C96.198 41.0869 95.9636 40.7939 95.6472 40.583C95.3367 40.3721 94.9382 40.2666 94.4519 40.2666Z" fill="white"/>
<path d="M80.9772 38.7109C82.067 38.7109 82.8874 38.9922 83.4381 39.5547C83.9948 40.1172 84.2731 41.0195 84.2731 42.2617V48.625H82.2077V42.6309C82.2077 41.8926 82.0641 41.3359 81.777 40.9609C81.4899 40.5859 81.0534 40.3984 80.4674 40.3984C79.6471 40.3984 79.0553 40.6621 78.692 41.1895C78.3346 41.7109 78.1559 42.4697 78.1559 43.4658V48.625H76.0905V42.6309C76.0905 42.1387 76.026 41.7285 75.8971 41.4004C75.7741 41.0664 75.5836 40.8174 75.3258 40.6533C75.068 40.4834 74.7428 40.3984 74.3503 40.3984C73.7819 40.3984 73.3278 40.5273 72.9879 40.7852C72.654 41.043 72.4137 41.4238 72.2672 41.9277C72.1208 42.4258 72.0475 43.0381 72.0475 43.7646V48.625H69.9821V38.8955H71.5905L71.8805 40.2051H71.9948C72.194 39.8652 72.4401 39.5869 72.7331 39.3701C73.0319 39.1475 73.3629 38.9834 73.7262 38.8779C74.0895 38.7666 74.4674 38.7109 74.86 38.7109C75.5866 38.7109 76.1989 38.8398 76.6969 39.0977C77.195 39.3496 77.567 39.7363 77.8131 40.2578H77.9713C78.276 39.7305 78.7008 39.3408 79.2458 39.0889C79.7907 38.8369 80.3678 38.7109 80.9772 38.7109Z" fill="white"/>
<path d="M60.3834 38.7109C61.4732 38.7109 62.2935 38.9922 62.8443 39.5547C63.4009 40.1172 63.6793 41.0195 63.6793 42.2617V48.625H61.6138V42.6309C61.6138 41.8926 61.4703 41.3359 61.1832 40.9609C60.8961 40.5859 60.4595 40.3984 59.8736 40.3984C59.0533 40.3984 58.4615 40.6621 58.0982 41.1895C57.7408 41.7109 57.5621 42.4697 57.5621 43.4658V48.625H55.4966V42.6309C55.4966 42.1387 55.4322 41.7285 55.3033 41.4004C55.1802 41.0664 54.9898 40.8174 54.732 40.6533C54.4742 40.4834 54.149 40.3984 53.7564 40.3984C53.188 40.3984 52.7339 40.5273 52.3941 40.7852C52.0601 41.043 51.8199 41.4238 51.6734 41.9277C51.5269 42.4258 51.4537 43.0381 51.4537 43.7646V48.625H49.3882V38.8955H50.9966L51.2867 40.2051H51.4009C51.6002 39.8652 51.8463 39.5869 52.1392 39.3701C52.438 39.1475 52.7691 38.9834 53.1324 38.8779C53.4957 38.7666 53.8736 38.7109 54.2662 38.7109C54.9927 38.7109 55.605 38.8398 56.1031 39.0977C56.6011 39.3496 56.9732 39.7363 57.2193 40.2578H57.3775C57.6822 39.7305 58.107 39.3408 58.6519 39.0889C59.1968 38.8369 59.774 38.7109 60.3834 38.7109Z" fill="white"/>
<path d="M43.5952 43.7383C43.5952 44.5469 43.4897 45.2646 43.2788 45.8916C43.0679 46.5186 42.7603 47.0488 42.356 47.4824C41.9517 47.9102 41.4653 48.2383 40.897 48.4668C40.3286 48.6895 39.687 48.8008 38.9722 48.8008C38.3042 48.8008 37.6919 48.6895 37.1353 48.4668C36.5786 48.2383 36.0952 47.9102 35.6851 47.4824C35.2808 47.0488 34.9673 46.5186 34.7446 45.8916C34.522 45.2646 34.4106 44.5469 34.4106 43.7383C34.4106 42.666 34.5952 41.7578 34.9644 41.0137C35.3394 40.2637 35.8726 39.6924 36.564 39.2998C37.2554 38.9072 38.0786 38.7109 39.0337 38.7109C39.9302 38.7109 40.7212 38.9072 41.4067 39.2998C42.0923 39.6924 42.6284 40.2637 43.0151 41.0137C43.4019 41.7637 43.5952 42.6719 43.5952 43.7383ZM36.5376 43.7383C36.5376 44.4473 36.6226 45.0537 36.7925 45.5576C36.9683 46.0615 37.2378 46.4482 37.6011 46.7178C37.9644 46.9814 38.4331 47.1133 39.0073 47.1133C39.5815 47.1133 40.0503 46.9814 40.4136 46.7178C40.7769 46.4482 41.0435 46.0615 41.2134 45.5576C41.3833 45.0537 41.4683 44.4473 41.4683 43.7383C41.4683 43.0293 41.3833 42.4287 41.2134 41.9365C41.0435 41.4385 40.7769 41.0605 40.4136 40.8027C40.0503 40.5391 39.5786 40.4072 38.9985 40.4072C38.1431 40.4072 37.519 40.6943 37.1265 41.2686C36.7339 41.8428 36.5376 42.666 36.5376 43.7383Z" fill="white"/>
<path d="M26.5346 48.8008C25.6147 48.8008 24.8178 48.6221 24.144 48.2646C23.4701 47.9072 22.9516 47.3594 22.5883 46.6211C22.225 45.8828 22.0434 44.9453 22.0434 43.8086C22.0434 42.625 22.2426 41.6582 22.641 40.9082C23.0395 40.1582 23.5902 39.6045 24.2934 39.2471C25.0023 38.8896 25.8139 38.7109 26.7279 38.7109C27.308 38.7109 27.8324 38.7695 28.3012 38.8867C28.7758 38.998 29.1772 39.1357 29.5053 39.2998L28.89 40.9521C28.5326 40.8057 28.1664 40.6826 27.7914 40.583C27.4164 40.4834 27.0561 40.4336 26.7104 40.4336C26.142 40.4336 25.6674 40.5596 25.2865 40.8115C24.9115 41.0635 24.6303 41.4385 24.4428 41.9365C24.2611 42.4346 24.1703 43.0527 24.1703 43.791C24.1703 44.5059 24.2641 45.1094 24.4516 45.6016C24.6391 46.0879 24.9174 46.457 25.2865 46.709C25.6557 46.9551 26.1098 47.0781 26.6488 47.0781C27.182 47.0781 27.6596 47.0137 28.0815 46.8848C28.5033 46.7559 28.9018 46.5889 29.2768 46.3838V48.1768C28.9076 48.3877 28.5121 48.543 28.0902 48.6426C27.6684 48.748 27.1498 48.8008 26.5346 48.8008Z" fill="white"/>
<path d="M12.5501 44.6699V42.9209H17.0853V44.6699H12.5501Z" fill="white"/>
<path d="M7.40747 48.625H0.130127V35.7754H7.40747V37.5508H2.2395V41.04H7.08228V42.8066H2.2395V46.8408H7.40747V48.625Z" fill="white"/>
</svg>
