<svg width="196" height="36" viewBox="0 0 196 36" fill="none" xmlns="http://www.w3.org/2000/svg">
<path d="M188.106 18.36C186.698 18.36 185.546 18.008 184.65 17.304C183.77 16.584 183.33 15.608 183.33 14.376C183.33 13.096 183.754 12.104 184.602 11.4C185.45 10.68 186.65 10.32 188.202 10.32C188.89 10.32 189.546 10.392 190.17 10.536C190.794 10.68 191.346 10.88 191.826 11.136V10.848C191.826 10.128 191.57 9.6 191.058 9.264C190.546 8.928 189.762 8.76 188.706 8.76C187.298 8.76 186.002 9.024 184.818 9.552V6.912C185.33 6.688 185.994 6.504 186.81 6.36C187.626 6.2 188.442 6.12 189.258 6.12C191.338 6.12 192.89 6.552 193.914 7.416C194.938 8.264 195.45 9.456 195.45 10.992V18H192.042V16.944C191.066 17.888 189.754 18.36 188.106 18.36ZM189.09 15.96C189.682 15.96 190.218 15.848 190.698 15.624C191.178 15.4 191.554 15.088 191.826 14.688V13.536C191.01 12.992 190.114 12.72 189.138 12.72C188.466 12.72 187.946 12.864 187.578 13.152C187.226 13.424 187.05 13.832 187.05 14.376C187.05 14.888 187.226 15.28 187.578 15.552C187.93 15.824 188.434 15.96 189.09 15.96Z" fill="#F19101"/>
<path d="M173.853 22.752C173.373 22.752 172.877 22.72 172.365 22.656C171.869 22.592 171.493 22.504 171.237 22.392V19.68C171.701 19.856 172.213 19.944 172.773 19.944C173.349 19.944 173.781 19.816 174.069 19.56C174.373 19.304 174.621 18.904 174.813 18.36L175.197 17.376L170.205 6.48001H173.853L177.117 14.424L180.213 6.48001H183.837L178.941 18.792C178.397 20.152 177.725 21.152 176.925 21.792C176.125 22.432 175.101 22.752 173.853 22.752Z" fill="#F19101"/>
<path d="M161.217 6.48002H164.721V8.13602C165.185 7.57602 165.833 7.15202 166.665 6.86402C167.497 6.56002 168.441 6.40802 169.497 6.40802V9.16802C168.393 9.16802 167.417 9.33602 166.569 9.67202C165.737 10.008 165.161 10.52 164.841 11.208V18H161.217V6.48002Z" fill="#F19101"/>
<path d="M151.035 18.36C149.467 18.36 148.291 17.936 147.507 17.088C146.723 16.224 146.331 15.08 146.331 13.656V6.48001H149.955V13.272C149.955 14.776 150.651 15.528 152.043 15.528C152.651 15.528 153.219 15.384 153.747 15.096C154.275 14.808 154.715 14.376 155.067 13.8V6.48001H158.691V18H155.187V16.608C154.675 17.2 154.051 17.64 153.315 17.928C152.595 18.216 151.835 18.36 151.035 18.36Z" fill="#F19101"/>
<path d="M137.509 18.36C136.117 18.36 134.893 18.112 133.837 17.616C132.797 17.104 131.989 16.392 131.413 15.48C130.853 14.552 130.573 13.472 130.573 12.24C130.573 11.04 130.853 9.976 131.413 9.048C131.989 8.12 132.797 7.4 133.837 6.888C134.893 6.376 136.117 6.12 137.509 6.12C138.885 6.12 140.093 6.376 141.133 6.888C142.189 7.4 142.997 8.12 143.557 9.048C144.133 9.976 144.421 11.04 144.421 12.24C144.421 13.472 144.133 14.552 143.557 15.48C142.997 16.392 142.197 17.104 141.157 17.616C140.117 18.112 138.901 18.36 137.509 18.36ZM137.509 15.528C138.485 15.528 139.261 15.232 139.837 14.64C140.413 14.032 140.701 13.232 140.701 12.24C140.701 11.216 140.413 10.416 139.837 9.84C139.277 9.248 138.501 8.952 137.509 8.952C136.517 8.952 135.733 9.248 135.157 9.84C134.581 10.416 134.293 11.216 134.293 12.24C134.293 13.232 134.581 14.032 135.157 14.64C135.749 15.232 136.533 15.528 137.509 15.528Z" fill="#F19101"/>
<path d="M111.014 1.224H114.614L119.774 12.456L124.958 1.224H128.534V18H125.054V8.472L120.614 18H118.934L114.518 8.472V18H111.014V1.224Z" fill="#F19101"/>
<path d="M98.1657 18.36C96.8217 18.36 95.7977 17.992 95.0937 17.256C94.4057 16.504 94.0617 15.464 94.0617 14.136V9.09602H92.3817V6.48002H94.0617V3.02402H97.6857V6.48002H100.398V9.09602H97.6857V13.656C97.6857 14.328 97.8137 14.816 98.0697 15.12C98.3257 15.408 98.7817 15.552 99.4377 15.552C99.9657 15.552 100.47 15.424 100.95 15.168V17.88C100.214 18.2 99.2857 18.36 98.1657 18.36Z" fill="#F19101"/>
<path d="M78.5761 6.48H82.0801V7.896C82.6081 7.304 83.2321 6.864 83.9521 6.576C84.6881 6.272 85.4561 6.12 86.2561 6.12C87.8241 6.12 88.9921 6.544 89.7601 7.392C90.5441 8.224 90.9361 9.352 90.9361 10.776V18H87.3121V11.184C87.3121 9.696 86.6241 8.952 85.2481 8.952C84.6401 8.952 84.0721 9.104 83.5441 9.408C83.0161 9.696 82.5681 10.128 82.2001 10.704V18H78.5761V6.48Z" fill="#F19101"/>
<path d="M68.833 18.36C67.425 18.36 66.273 18.008 65.377 17.304C64.497 16.584 64.057 15.608 64.057 14.376C64.057 13.096 64.481 12.104 65.329 11.4C66.177 10.68 67.377 10.32 68.929 10.32C69.617 10.32 70.273 10.392 70.897 10.536C71.521 10.68 72.073 10.88 72.553 11.136V10.848C72.553 10.128 72.297 9.6 71.785 9.264C71.273 8.928 70.489 8.76 69.433 8.76C68.025 8.76 66.729 9.024 65.545 9.552V6.912C66.057 6.688 66.721 6.504 67.537 6.36C68.353 6.2 69.169 6.12 69.985 6.12C72.065 6.12 73.617 6.552 74.641 7.416C75.665 8.264 76.177 9.456 76.177 10.992V18H72.769V16.944C71.793 17.888 70.481 18.36 68.833 18.36ZM69.817 15.96C70.409 15.96 70.945 15.848 71.425 15.624C71.905 15.4 72.281 15.088 72.553 14.688V13.536C71.737 12.992 70.841 12.72 69.865 12.72C69.193 12.72 68.673 12.864 68.305 13.152C67.953 13.424 67.777 13.832 67.777 14.376C67.777 14.888 67.953 15.28 68.305 15.552C68.657 15.824 69.161 15.96 69.817 15.96Z" fill="#F19101"/>
<path d="M49.7714 0.264008H53.3954V7.80001C53.9394 7.24001 54.5554 6.82401 55.2434 6.55201C55.9314 6.26401 56.6674 6.12001 57.4514 6.12001C59.0194 6.12001 60.1874 6.54401 60.9554 7.39201C61.7394 8.22401 62.1314 9.35201 62.1314 10.776V18H58.5074V11.184C58.5074 9.69601 57.8194 8.95201 56.4434 8.95201C55.8354 8.95201 55.2674 9.10401 54.7394 9.40801C54.2114 9.69601 53.7634 10.128 53.3954 10.704V18H49.7714V0.264008Z" fill="#F19101"/>
<path d="M42.4057 18.36C41.5417 18.36 40.6137 18.264 39.6217 18.072C38.6457 17.896 37.8777 17.64 37.3177 17.304V14.472C37.9577 14.856 38.7257 15.168 39.6217 15.408C40.5177 15.648 41.3497 15.768 42.1177 15.768C42.7737 15.768 43.2537 15.712 43.5577 15.6C43.8617 15.488 44.0137 15.28 44.0137 14.976C44.0137 14.736 43.9257 14.544 43.7497 14.4C43.5737 14.24 43.3017 14.104 42.9337 13.992C42.5817 13.864 41.9897 13.68 41.1577 13.44C40.1817 13.152 39.4137 12.864 38.8537 12.576C38.3097 12.272 37.8937 11.896 37.6057 11.448C37.3337 11 37.1977 10.424 37.1977 9.72C37.1977 8.52 37.6697 7.624 38.6137 7.032C39.5737 6.424 40.8697 6.12 42.5017 6.12C43.3017 6.12 44.1257 6.20799 44.9737 6.384C45.8377 6.54399 46.5017 6.76 46.9657 7.032V9.792C46.5017 9.488 45.8937 9.24 45.1417 9.048C44.4057 8.856 43.6857 8.76 42.9817 8.76C42.3257 8.76 41.8137 8.824 41.4457 8.952C41.0937 9.08 40.9177 9.32 40.9177 9.672C40.9177 9.976 41.0857 10.208 41.4217 10.368C41.7737 10.528 42.4217 10.728 43.3657 10.968L43.8457 11.088C44.8537 11.36 45.6377 11.664 46.1977 12C46.7577 12.32 47.1497 12.712 47.3737 13.176C47.6137 13.624 47.7337 14.192 47.7337 14.88C47.7337 15.936 47.2777 16.784 46.3657 17.424C45.4537 18.048 44.1337 18.36 42.4057 18.36Z" fill="#F19101"/>
<path d="M28.2862 18.36C26.8782 18.36 25.7262 18.008 24.8302 17.304C23.9502 16.584 23.5102 15.608 23.5102 14.376C23.5102 13.096 23.9342 12.104 24.7822 11.4C25.6302 10.68 26.8302 10.32 28.3822 10.32C29.0702 10.32 29.7262 10.392 30.3502 10.536C30.9742 10.68 31.5262 10.88 32.0062 11.136V10.848C32.0062 10.128 31.7502 9.6 31.2382 9.264C30.7262 8.928 29.9422 8.76 28.8862 8.76C27.4782 8.76 26.1822 9.024 24.9982 9.552V6.912C25.5102 6.688 26.1742 6.504 26.9902 6.36C27.8062 6.2 28.6222 6.12 29.4382 6.12C31.5182 6.12 33.0702 6.552 34.0942 7.416C35.1182 8.264 35.6302 9.456 35.6302 10.992V18H32.2222V16.944C31.2462 17.888 29.9342 18.36 28.2862 18.36ZM29.2702 15.96C29.8622 15.96 30.3982 15.848 30.8782 15.624C31.3582 15.4 31.7342 15.088 32.0062 14.688V13.536C31.1902 12.992 30.2942 12.72 29.3182 12.72C28.6462 12.72 28.1262 12.864 27.7582 13.152C27.4062 13.424 27.2302 13.832 27.2302 14.376C27.2302 14.888 27.4062 15.28 27.7582 15.552C28.1102 15.824 28.6142 15.96 29.2702 15.96Z" fill="#F19101"/>
<path d="M15.248 6.48002H18.752V8.13602C19.216 7.57602 19.864 7.15202 20.696 6.86402C21.528 6.56002 22.472 6.40802 23.528 6.40802V9.16802C22.424 9.16802 21.448 9.33602 20.6 9.67202C19.768 10.008 19.192 10.52 18.872 11.208V18H15.248V6.48002Z" fill="#F19101"/>
<path d="M0.247986 1.224H7.30399C9.20799 1.224 10.728 1.728 11.864 2.736C13 3.728 13.568 5.112 13.568 6.888C13.568 8.712 13 10.112 11.864 11.088C10.744 12.064 9.22399 12.552 7.30399 12.552H3.89599V18H0.247986V1.224ZM6.77599 9.504C8.83999 9.504 9.87199 8.632 9.87199 6.888C9.87199 5.912 9.59199 5.232 9.03199 4.848C8.48799 4.464 7.73599 4.272 6.77599 4.272H3.89599V9.504H6.77599Z" fill="#F19101"/>
<path d="M192.092 27.2891C192.767 27.2891 193.346 27.4281 193.829 27.7061C194.312 27.984 194.683 28.3783 194.943 28.8887C195.203 29.3991 195.333 30.0098 195.333 30.7207V31.582H190.281C190.299 32.3158 190.495 32.8809 190.869 33.2773C191.247 33.6738 191.776 33.8721 192.455 33.8721C192.938 33.8721 193.371 33.8265 193.754 33.7354C194.141 33.6396 194.54 33.5007 194.95 33.3184V34.624C194.572 34.8018 194.186 34.9316 193.795 35.0137C193.403 35.0957 192.933 35.1367 192.386 35.1367C191.644 35.1367 190.99 34.9932 190.424 34.7061C189.864 34.4144 189.424 33.9814 189.105 33.4072C188.791 32.833 188.633 32.1198 188.633 31.2676C188.633 30.4199 188.777 29.6999 189.064 29.1074C189.351 28.515 189.755 28.0638 190.274 27.7539C190.794 27.444 191.4 27.2891 192.092 27.2891ZM192.092 28.499C191.587 28.499 191.176 28.6631 190.862 28.9912C190.552 29.3193 190.37 29.8001 190.315 30.4336H193.76C193.756 30.0553 193.692 29.7204 193.569 29.4287C193.45 29.137 193.268 28.9092 193.022 28.7451C192.781 28.5811 192.471 28.499 192.092 28.499Z" fill="#1556AC"/>
<path d="M180.949 35L178.071 27.4326H179.773L181.332 31.876C181.432 32.1585 181.523 32.4639 181.605 32.792C181.687 33.1201 181.744 33.3958 181.776 33.6191H181.831C181.862 33.3867 181.924 33.1087 182.015 32.7852C182.106 32.457 182.2 32.154 182.295 31.876L183.854 27.4326H185.549L182.671 35H180.949Z" fill="#1556AC"/>
<path d="M174.536 27.4326V35H172.929V27.4326H174.536ZM173.743 24.5342C173.989 24.5342 174.201 24.6003 174.378 24.7324C174.561 24.8646 174.652 25.0924 174.652 25.416C174.652 25.735 174.561 25.9629 174.378 26.0996C174.201 26.2318 173.989 26.2979 173.743 26.2979C173.487 26.2979 173.271 26.2318 173.093 26.0996C172.92 25.9629 172.833 25.735 172.833 25.416C172.833 25.0924 172.92 24.8646 173.093 24.7324C173.271 24.6003 173.487 24.5342 173.743 24.5342Z" fill="#1556AC"/>
<path d="M167.828 33.8379C168.038 33.8379 168.245 33.8197 168.45 33.7832C168.656 33.7422 168.842 33.6943 169.011 33.6396V34.8564C168.833 34.9339 168.603 35 168.321 35.0547C168.038 35.1094 167.744 35.1367 167.439 35.1367C167.01 35.1367 166.625 35.0661 166.283 34.9248C165.942 34.779 165.671 34.5306 165.47 34.1797C165.269 33.8288 165.169 33.3434 165.169 32.7236V28.6562H164.137V27.9385L165.244 27.3711L165.771 25.751H166.782V27.4326H168.949V28.6562H166.782V32.7031C166.782 33.0859 166.878 33.3708 167.07 33.5576C167.261 33.7445 167.514 33.8379 167.828 33.8379Z" fill="#1556AC"/>
<path d="M160.328 27.4326V35H159.064L158.845 33.9814H158.756C158.596 34.2412 158.394 34.4577 158.148 34.6309C157.902 34.7995 157.628 34.9248 157.327 35.0068C157.027 35.0934 156.71 35.1367 156.377 35.1367C155.807 35.1367 155.32 35.041 154.914 34.8496C154.513 34.6536 154.206 34.3529 153.991 33.9473C153.777 33.5417 153.67 33.0176 153.67 32.375V27.4326H155.283V32.0742C155.283 32.6621 155.402 33.1019 155.639 33.3936C155.88 33.6852 156.254 33.8311 156.76 33.8311C157.248 33.8311 157.635 33.7308 157.922 33.5303C158.209 33.3298 158.412 33.0335 158.53 32.6416C158.653 32.2497 158.715 31.7689 158.715 31.1992V27.4326H160.328Z" fill="#1556AC"/>
<path d="M147.441 35.1367C146.726 35.1367 146.106 34.9977 145.582 34.7197C145.058 34.4417 144.655 34.0156 144.372 33.4414C144.09 32.8672 143.948 32.138 143.948 31.2539C143.948 30.3333 144.103 29.5814 144.413 28.998C144.723 28.4147 145.151 27.984 145.698 27.7061C146.25 27.4281 146.881 27.2891 147.592 27.2891C148.043 27.2891 148.451 27.3346 148.815 27.4258C149.185 27.5124 149.497 27.6195 149.752 27.7471L149.273 29.0322C148.995 28.9183 148.711 28.8226 148.419 28.7451C148.127 28.6676 147.847 28.6289 147.578 28.6289C147.136 28.6289 146.767 28.7269 146.471 28.9229C146.179 29.1188 145.96 29.4105 145.814 29.7979C145.673 30.1852 145.603 30.666 145.603 31.2402C145.603 31.7962 145.675 32.2656 145.821 32.6484C145.967 33.0267 146.184 33.3138 146.471 33.5098C146.758 33.7012 147.111 33.7969 147.53 33.7969C147.945 33.7969 148.316 33.7467 148.645 33.6465C148.973 33.5462 149.283 33.4163 149.574 33.2568V34.6514C149.287 34.8154 148.98 34.9362 148.651 35.0137C148.323 35.0957 147.92 35.1367 147.441 35.1367Z" fill="#1556AC"/>
<path d="M136.961 27.2891C137.635 27.2891 138.214 27.4281 138.697 27.7061C139.18 27.984 139.552 28.3783 139.811 28.8887C140.071 29.3991 140.201 30.0098 140.201 30.7207V31.582H135.149C135.168 32.3158 135.364 32.8809 135.737 33.2773C136.115 33.6738 136.644 33.8721 137.323 33.8721C137.806 33.8721 138.239 33.8265 138.622 33.7354C139.009 33.6396 139.408 33.5007 139.818 33.3184V34.624C139.44 34.8018 139.055 34.9316 138.663 35.0137C138.271 35.0957 137.802 35.1367 137.255 35.1367C136.512 35.1367 135.858 34.9932 135.293 34.7061C134.732 34.4144 134.293 33.9814 133.974 33.4072C133.659 32.833 133.502 32.1198 133.502 31.2676C133.502 30.4199 133.645 29.6999 133.933 29.1074C134.22 28.515 134.623 28.0638 135.142 27.7539C135.662 27.444 136.268 27.2891 136.961 27.2891ZM136.961 28.499C136.455 28.499 136.045 28.6631 135.73 28.9912C135.42 29.3193 135.238 29.8001 135.184 30.4336H138.629C138.624 30.0553 138.56 29.7204 138.437 29.4287C138.319 29.137 138.137 28.9092 137.891 28.7451C137.649 28.5811 137.339 28.499 136.961 28.499Z" fill="#1556AC"/>
<path d="M125.53 31.1309L123.001 27.4326H124.833L126.562 30.0918L128.299 27.4326H130.124L127.581 31.1309L130.254 35H128.415L126.562 32.1631L124.703 35H122.878L125.53 31.1309Z" fill="#1556AC"/>
<path d="M119.479 35H113.819V25.0059H119.479V26.3867H115.46V29.1006H119.226V30.4746H115.46V33.6123H119.479V35Z" fill="#1556AC"/>
<path d="M100.206 27.2891C100.881 27.2891 101.46 27.4281 101.943 27.7061C102.426 27.984 102.797 28.3783 103.057 28.8887C103.317 29.3991 103.447 30.0098 103.447 30.7207V31.582H98.3949C98.4132 32.3158 98.6091 32.8809 98.9828 33.2773C99.3611 33.6738 99.8897 33.8721 100.569 33.8721C101.052 33.8721 101.485 33.8265 101.868 33.7354C102.255 33.6396 102.654 33.5007 103.064 33.3184V34.624C102.686 34.8018 102.301 34.9316 101.909 35.0137C101.517 35.0957 101.047 35.1367 100.5 35.1367C99.7576 35.1367 99.1036 34.9932 98.5385 34.7061C97.978 34.4144 97.5382 33.9814 97.2192 33.4072C96.9047 32.833 96.7475 32.1198 96.7475 31.2676C96.7475 30.4199 96.891 29.6999 97.1781 29.1074C97.4653 28.515 97.8686 28.0638 98.3881 27.7539C98.9076 27.444 99.5138 27.2891 100.206 27.2891ZM100.206 28.499C99.7006 28.499 99.2905 28.6631 98.976 28.9912C98.6661 29.3193 98.4838 29.8001 98.4291 30.4336H101.874C101.87 30.0553 101.806 29.7204 101.683 29.4287C101.565 29.137 101.382 28.9092 101.136 28.7451C100.895 28.5811 100.585 28.499 100.206 28.499Z" fill="#1556AC"/>
<path d="M90.9017 35.1367C90.1862 35.1367 89.5664 34.9977 89.0423 34.7197C88.5182 34.4417 88.1149 34.0156 87.8323 33.4414C87.5498 32.8672 87.4085 32.138 87.4085 31.2539C87.4085 30.3333 87.5635 29.5814 87.8734 28.998C88.1832 28.4147 88.6116 27.984 89.1585 27.7061C89.7099 27.4281 90.3411 27.2891 91.0521 27.2891C91.5032 27.2891 91.9111 27.3346 92.2757 27.4258C92.6448 27.5124 92.957 27.6195 93.2122 27.7471L92.7337 29.0322C92.4557 28.9183 92.1709 28.8226 91.8792 28.7451C91.5875 28.6676 91.3073 28.6289 91.0384 28.6289C90.5963 28.6289 90.2272 28.7269 89.931 28.9229C89.6393 29.1188 89.4206 29.4105 89.2747 29.7979C89.1334 30.1852 89.0628 30.666 89.0628 31.2402C89.0628 31.7962 89.1357 32.2656 89.2816 32.6484C89.4274 33.0267 89.6439 33.3138 89.931 33.5098C90.2181 33.7012 90.5713 33.7969 90.9905 33.7969C91.4053 33.7969 91.7767 33.7467 92.1048 33.6465C92.4329 33.5462 92.7428 33.4163 93.0345 33.2568V34.6514C92.7474 34.8154 92.4398 34.9362 92.1116 35.0137C91.7835 35.0957 91.3802 35.1367 90.9017 35.1367Z" fill="#1556AC"/>
<path d="M83.2648 27.2891C83.3924 27.2891 83.5314 27.2959 83.6818 27.3096C83.8322 27.3232 83.9621 27.3415 84.0715 27.3643L83.9211 28.8682C83.8254 28.8408 83.7069 28.8203 83.5656 28.8066C83.4289 28.793 83.3058 28.7861 83.1965 28.7861C82.9094 28.7861 82.6359 28.834 82.3762 28.9297C82.1164 29.0208 81.8863 29.1621 81.6857 29.3535C81.4852 29.5404 81.328 29.7751 81.2141 30.0576C81.1001 30.3402 81.0432 30.6683 81.0432 31.042V35H79.4299V27.4326H80.6877L80.9064 28.7656H80.9816C81.132 28.4967 81.3189 28.2507 81.5422 28.0273C81.7655 27.804 82.0207 27.6263 82.3078 27.4941C82.5995 27.3574 82.9185 27.2891 83.2648 27.2891Z" fill="#1556AC"/>
<path d="M71.9981 27.2891C72.6726 27.2891 73.2514 27.4281 73.7344 27.7061C74.2175 27.984 74.5889 28.3783 74.8487 28.8887C75.1085 29.3991 75.2383 30.0098 75.2383 30.7207V31.582H70.1866C70.2048 32.3158 70.4008 32.8809 70.7745 33.2773C71.1527 33.6738 71.6814 33.8721 72.3604 33.8721C72.8435 33.8721 73.2764 33.8265 73.6592 33.7354C74.0466 33.6396 74.4454 33.5007 74.8555 33.3184V34.624C74.4773 34.8018 74.0922 34.9316 73.7003 35.0137C73.3083 35.0957 72.8389 35.1367 72.2921 35.1367C71.5492 35.1367 70.8952 34.9932 70.3301 34.7061C69.7696 34.4144 69.3298 33.9814 69.0108 33.4072C68.6964 32.833 68.5391 32.1198 68.5391 31.2676C68.5391 30.4199 68.6827 29.6999 68.9698 29.1074C69.2569 28.515 69.6602 28.0638 70.1797 27.7539C70.6993 27.444 71.3054 27.2891 71.9981 27.2891ZM71.9981 28.499C71.4922 28.499 71.0821 28.6631 70.7676 28.9912C70.4577 29.3193 70.2755 29.8001 70.2208 30.4336H73.6661C73.6615 30.0553 73.5977 29.7204 73.4747 29.4287C73.3562 29.137 73.1739 28.9092 72.9278 28.7451C72.6863 28.5811 72.3764 28.499 71.9981 28.499Z" fill="#1556AC"/>
<path d="M61.7978 27.2891C62.6454 27.2891 63.2835 27.5078 63.7119 27.9453C64.1448 28.3828 64.3613 29.0846 64.3613 30.0508V35H62.7548V30.3379C62.7548 29.7637 62.6432 29.3307 62.4199 29.0391C62.1966 28.7474 61.857 28.6016 61.4013 28.6016C60.7633 28.6016 60.303 28.8066 60.0204 29.2168C59.7425 29.6224 59.6035 30.2126 59.6035 30.9873V35H57.997V30.3379C57.997 29.9551 57.9469 29.6361 57.8466 29.3809C57.7509 29.1211 57.6028 28.9274 57.4023 28.7998C57.2018 28.6676 56.9488 28.6016 56.6435 28.6016C56.2014 28.6016 55.8482 28.7018 55.5839 28.9023C55.3242 29.1029 55.1373 29.3991 55.0234 29.791C54.9094 30.1784 54.8525 30.6546 54.8525 31.2197V35H53.246V27.4326H54.497L54.7226 28.4512H54.8115C54.9664 28.1868 55.1578 27.9704 55.3857 27.8018C55.6181 27.6286 55.8756 27.501 56.1581 27.4189C56.4407 27.3324 56.7346 27.2891 57.04 27.2891C57.6051 27.2891 58.0813 27.3893 58.4687 27.5898C58.8561 27.7858 59.1454 28.0866 59.3369 28.4922H59.4599C59.6969 28.082 60.0273 27.779 60.4511 27.583C60.8749 27.387 61.3238 27.2891 61.7978 27.2891Z" fill="#1556AC"/>
<path d="M46.0604 27.2891C46.908 27.2891 47.546 27.5078 47.9744 27.9453C48.4074 28.3828 48.6238 29.0846 48.6238 30.0508V35H47.0174V30.3379C47.0174 29.7637 46.9057 29.3307 46.6824 29.0391C46.4591 28.7474 46.1196 28.6016 45.6639 28.6016C45.0259 28.6016 44.5656 28.8066 44.283 29.2168C44.005 29.6224 43.866 30.2126 43.866 30.9873V35H42.2596V30.3379C42.2596 29.9551 42.2095 29.6361 42.1092 29.3809C42.0135 29.1211 41.8654 28.9274 41.6649 28.7998C41.4643 28.6676 41.2114 28.6016 40.9061 28.6016C40.464 28.6016 40.1108 28.7018 39.8465 28.9023C39.5867 29.1029 39.3999 29.3991 39.2859 29.791C39.172 30.1784 39.1151 30.6546 39.1151 31.2197V35H37.5086V27.4326H38.7596L38.9852 28.4512H39.074C39.229 28.1868 39.4204 27.9704 39.6483 27.8018C39.8807 27.6286 40.1382 27.501 40.4207 27.4189C40.7033 27.3324 40.9972 27.2891 41.3026 27.2891C41.8677 27.2891 42.3439 27.3893 42.7313 27.5898C43.1186 27.7858 43.408 28.0866 43.5994 28.4922H43.7225C43.9595 28.082 44.2899 27.779 44.7137 27.583C45.1375 27.387 45.5864 27.2891 46.0604 27.2891Z" fill="#1556AC"/>
<path d="M33.2829 31.1992C33.2829 31.8281 33.2009 32.3864 33.0368 32.874C32.8727 33.3617 32.6335 33.7741 32.319 34.1113C32.0046 34.444 31.6263 34.6992 31.1843 34.877C30.7422 35.0501 30.2432 35.1367 29.6872 35.1367C29.1677 35.1367 28.6914 35.0501 28.2585 34.877C27.8255 34.6992 27.4496 34.444 27.1306 34.1113C26.8161 33.7741 26.5723 33.3617 26.3991 32.874C26.2259 32.3864 26.1393 31.8281 26.1393 31.1992C26.1393 30.3652 26.2829 29.6589 26.57 29.0801C26.8617 28.4967 27.2764 28.0524 27.8141 27.7471C28.3519 27.4417 28.9922 27.2891 29.735 27.2891C30.4323 27.2891 31.0475 27.4417 31.5807 27.7471C32.114 28.0524 32.5309 28.4967 32.8317 29.0801C33.1325 29.6634 33.2829 30.3698 33.2829 31.1992ZM27.7936 31.1992C27.7936 31.7507 27.8597 32.2223 27.9919 32.6143C28.1286 33.0062 28.3382 33.307 28.6208 33.5166C28.9033 33.7217 29.2679 33.8242 29.7145 33.8242C30.1612 33.8242 30.5257 33.7217 30.8083 33.5166C31.0908 33.307 31.2982 33.0062 31.4304 32.6143C31.5625 32.2223 31.6286 31.7507 31.6286 31.1992C31.6286 30.6478 31.5625 30.1807 31.4304 29.7979C31.2982 29.4105 31.0908 29.1165 30.8083 28.916C30.5257 28.7109 30.1589 28.6084 29.7077 28.6084C29.0423 28.6084 28.557 28.8317 28.2516 29.2783C27.9463 29.7249 27.7936 30.3652 27.7936 31.1992Z" fill="#1556AC"/>
<path d="M20.2935 35.1367C19.5781 35.1367 18.9583 34.9977 18.4342 34.7197C17.9101 34.4417 17.5068 34.0156 17.2242 33.4414C16.9417 32.8672 16.8004 32.138 16.8004 31.2539C16.8004 30.3333 16.9553 29.5814 17.2652 28.998C17.5751 28.4147 18.0035 27.984 18.5504 27.7061C19.1018 27.4281 19.733 27.2891 20.4439 27.2891C20.8951 27.2891 21.303 27.3346 21.6676 27.4258C22.0367 27.5124 22.3489 27.6195 22.6041 27.7471L22.1256 29.0322C21.8476 28.9183 21.5628 28.8226 21.2711 28.7451C20.9794 28.6676 20.6991 28.6289 20.4303 28.6289C19.9882 28.6289 19.6191 28.7269 19.3228 28.9229C19.0312 29.1188 18.8124 29.4105 18.6666 29.7979C18.5253 30.1852 18.4547 30.666 18.4547 31.2402C18.4547 31.7962 18.5276 32.2656 18.6734 32.6484C18.8193 33.0267 19.0357 33.3138 19.3228 33.5098C19.61 33.7012 19.9631 33.7969 20.3824 33.7969C20.7971 33.7969 21.1685 33.7467 21.4967 33.6465C21.8248 33.5462 22.1347 33.4163 22.4264 33.2568V34.6514C22.1393 34.8154 21.8316 34.9362 21.5035 35.0137C21.1754 35.0957 20.7721 35.1367 20.2935 35.1367Z" fill="#1556AC"/>
<path d="M9.69675 31.9238V30.5635H13.2241V31.9238H9.69675Z" fill="#1556AC"/>
<path d="M5.9769 35H0.316742V25.0059H5.9769V26.3867H1.95737V29.1006H5.72397V30.4746H1.95737V33.6123H5.9769V35Z" fill="#1556AC"/>
</svg>
